<?xml version="1.0" encoding="UTF-8" standalone="no"?>
<!-- Created with Inkscape (http://www.inkscape.org/) -->

<svg
     xmlns:dc="http://purl.org/dc/elements/1.1/"
     xmlns:cc="http://creativecommons.org/ns#"
     xmlns:rdf="http://www.w3.org/1999/02/22-rdf-syntax-ns#"
     xmlns:svg="http://www.w3.org/2000/svg"
     xmlns="http://www.w3.org/2000/svg"
     version="1.1"
     width="533.57355"
     height="795.8125"
     id="svg4695">
    <defs
         id="defs4697">
        <defs
             id="defs1305" />
        <defs
             id="defs1311" />
    </defs>
    <metadata
         id="metadata4700">
        <rdf:RDF>
            <cc:Work
                 rdf:about="">
                <dc:format>image/svg+xml</dc:format>
                <dc:type
                     rdf:resource="http://purl.org/dc/dcmitype/StillImage" />
                <dc:title></dc:title>
            </cc:Work>
        </rdf:RDF>
    </metadata>
    <g
         transform="translate(-113,-225.125)"
         id="layer1">
        <rect
             width="114.2124"
             height="250.79921"
             rx="42.230598"
             ry="55.555565"
             x="325.66968"
             y="766.6344"
             id="rect5636"
             style="fill:#747970;fill-opacity:1;stroke:#000000;stroke-width:7;stroke-opacity:1" />
        <path
             d="M 229.05106,754.66686 A 48.060542,51.20826 30.624259 1 0 280.99109,666.39814 48.060542,51.20826 30.624259 0 0 229.05106,754.66686 z"
             id="path5638"
             style="fill:#e5e1d1;fill-opacity:1;stroke:#000000;stroke-width:7;stroke-linecap:round;stroke-linejoin:round;stroke-opacity:1" />
        <path
             d="M 535.18821,750.44784 A 51.208263,48.060545 51.06185 1 1 471.03071,670.61708 51.208263,48.060545 51.06185 0 1 535.18821,750.44784 z"
             id="path5640"
             style="fill:#e5e1d1;fill-opacity:1;stroke:#000000;stroke-width:7;stroke-linecap:round;stroke-linejoin:round;stroke-opacity:1" />
        <path
             d="M 380.80813,589.31618 C 305.38053,589.18398 105.63583,888.45908 143.12793,945.97814 180.54543,1003.6408 577.03273,1005.8603 615.00533,948.18154 653.07433,891.68098 456.35093,590.18708 380.80813,589.31618 z"
             id="path1288"
             style="fill:#808080;fill-opacity:1;stroke:#000000;stroke-width:7;stroke-linecap:round;stroke-linejoin:round;stroke-opacity:1" />
        <path
             d="M 380.85153,872.03818 C 360.41153,872.07368 306.28293,791.65868 316.44283,776.20338 326.58263,760.70948 434.02613,760.11308 444.31623,775.61128 454.63253,790.79299 401.32273,871.80418 380.85153,872.03818 z"
             id="path5646"
             style="fill:#b7bebe;fill-opacity:1;stroke:#12625b;stroke-width:5;stroke-opacity:1" />
        <path
             d="M 380.85153,872.03818 C 360.41153,872.07368 306.28293,791.65868 316.44283,776.20338 326.58263,760.70948 434.02613,760.11308 444.31623,775.61128 454.63253,790.79299 401.32273,871.80418 380.85153,872.03818 z"
             id="path5648"
             style="fill:none;stroke:#e9e9e9;stroke-width:14;stroke-opacity:1" />
        <path
             d="M 380.85153,872.03818 C 360.41153,872.07368 306.28293,791.65868 316.44283,776.20338 326.58263,760.70948 434.02613,760.11308 444.31623,775.61128 454.63253,790.79299 401.32273,871.80418 380.85153,872.03818 z"
             id="path5650"
             style="fill:none;stroke:#2b4947;stroke-width:5;stroke-opacity:1" />
        <path
             d="M 527.70403,886.80728 C 554.45663,906.03138 591.63113,900.39688 610.64643,873.91698 629.81243,847.46548 623.69703,810.35409 596.97383,790.97978 570.25063,771.60508 532.89593,777.36078 513.70113,803.96258 499.42363,823.70278 498.97063,850.32919 512.49583,870.90518 L 562.27843,838.80368 z"
             id="path5652"
             style="fill:#e5e1d1;fill-opacity:1;stroke:#000000;stroke-width:7;stroke-linecap:round;stroke-linejoin:round;stroke-opacity:1" />
        <path
             d="M 566.28683,653.09528 C 565.46263,653.10208 564.64013,653.11369 563.81803,653.15778 552.85613,653.74628 542.14693,657.73518 533.75553,666.12658 A 12.021996,12.021996 0 0 0 530.59933,671.40778 C 534.99633,674.36938 539.04483,678.05519 542.56803,682.43908 543.57963,683.69789 544.53103,684.99909 545.41183,686.31408 A 12.021996,12.021996 0 0 0 550.75553,683.12658 C 557.36403,676.51809 565.54593,675.31098 576.41183,678.59528 587.27763,681.87958 599.49723,690.50058 608.41183,702.25158 617.32623,714.00248 622.95823,728.55659 622.50553,743.65778 622.05283,758.75899 615.90983,774.87938 599.00553,791.22028 A 12.022496,12.022496 0 1 0 615.72433,808.50158 C 636.38493,788.52958 645.89383,765.82298 646.53683,744.37658 647.17973,722.93008 639.31423,703.20398 627.56803,687.72028 615.82183,672.23658 600.21883,660.65358 583.38053,655.56408 577.85543,653.89408 572.05613,653.04768 566.28683,653.09528 z"
             id="path5654"
             style="fill:#565656;fill-opacity:1;stroke:none" />
        <path
             d="M 231.85873,886.80728 C 205.10603,906.03138 167.93153,900.39688 148.91623,873.91698 129.75023,847.46548 135.86563,810.35409 162.58873,790.97978 189.31203,771.60508 226.66673,777.36078 245.86153,803.96258 260.13903,823.70278 260.59203,850.32919 247.06683,870.90518 L 197.28423,838.80368 z"
             id="path5656"
             style="fill:#e5e1d1;fill-opacity:1;stroke:#000000;stroke-width:7;stroke-linecap:round;stroke-linejoin:round;stroke-opacity:1" />
        <path
             d="M 193.28673,651.09528 C 187.51743,651.04768 181.71813,651.89408 176.19303,653.56408 159.35473,658.65358 143.72053,670.23658 131.97433,685.72028 120.22803,701.20398 112.39383,720.93008 113.03683,742.37658 113.67973,763.82298 123.18863,786.52958 143.84933,806.50158 A 12.022461,12.022461 0 1 0 160.56803,789.22028 C 143.66373,772.87938 137.52073,756.75899 137.06803,741.65778 136.61533,726.55659 142.21603,712.00248 151.13053,700.25158 160.04503,688.50058 172.29593,679.87958 183.16173,676.59528 194.02763,673.31098 202.20953,674.51809 208.81803,681.12658 A 12.021996,12.021996 0 0 0 214.66183,684.43908 C 218.55003,678.35658 223.45523,673.29358 228.97433,669.40778 A 12.021996,12.021996 0 0 0 225.81803,664.12658 C 217.42663,655.73518 206.71733,651.74628 195.75553,651.15778 194.93343,651.11369 194.11093,651.10208 193.28673,651.09528 z"
             id="path5658"
             style="fill:#565656;fill-opacity:1;stroke:none" />
        <rect
             width="489.45847"
             height="352.96426"
             rx="214.67065"
             ry="169.33209"
             x="135.782"
             y="330.45032"
             id="rect1297"
             style="fill:#808080;fill-opacity:1;stroke:#000000;stroke-width:7;stroke-linecap:round;stroke-linejoin:round;stroke-opacity:1" />
        <path
             d="M 380.45363,252.30739 C 376.61213,252.57168 374.78273,305.60288 349.15123,334.26298 346.06173,336.09238 344.57773,338.38928 344.57773,340.68608 344.57773,348.12548 360.69663,353.99978 380.96193,353.99978 401.20693,353.99978 417.65093,348.12548 417.65093,340.68608 417.65093,338.65348 416.08583,336.33628 413.28073,334.56788 385.57593,305.33868 385.86053,253.07979 380.45363,252.30739 z"
             id="path5662"
             style="fill:#e5e1d1;fill-opacity:1;stroke:#000000;stroke-width:7;stroke-opacity:1" />
        <path
             d="M 407.66253,252.99138 C 407.66253,266.30509 395.12133,277.05768 380.01883,277.05768 364.61153,277.05768 352.27343,266.30509 352.27343,252.99138 352.27343,239.65738 364.61153,228.62018 380.01883,228.62018 395.12133,228.62018 407.66253,239.65738 407.66253,252.99138 z"
             id="path5664"
             style="fill:#e5e1d1;fill-opacity:1;stroke:#000000;stroke-width:7;stroke-linecap:round;stroke-linejoin:round;stroke-opacity:1" />
        <rect
             width="362.88239"
             height="216.33334"
             rx="64.70343"
             ry="108.16666"
             x="197.38374"
             y="404.65698"
             id="use3017"
             style="fill:#c5c6ff;fill-opacity:1;stroke:#000000;stroke-width:6.99999952;stroke-opacity:1" />
        <path
             d="M 357.00953,409.25203 273.36693,616.49618 353.64623,616.49618 437.28893,409.25203 357.00953,409.25203 z M 451.02693,409.25203 367.38423,616.49618 404.92593,616.49618 488.56873,409.25203 451.02693,409.25203 z"
             id="path5670"
             style="opacity:0.8;fill:#ffffff;fill-opacity:1;stroke:none" />
        <path
             d="M 459.67001,490.8381 A 9,9 0 0 0 477.67001,490.8381 9,9 0 1 0 459.67001,490.8381 z"
             id="use6870"
             style="fill:#ff5646;fill-opacity:1;stroke:#000000;stroke-width:6;stroke-linecap:butt;stroke-linejoin:miter;stroke-opacity:1" />
        <path
             d="M 281.67002,478.3381 A 21.5,21.5 0 0 0 324.67002,478.3381 21.5,21.5 0 1 0 281.67002,478.3381 z"
             id="use3007"
             style="fill:#ff5646;fill-opacity:1;stroke:#000000;stroke-width:6;stroke-linecap:butt;stroke-linejoin:miter;stroke-opacity:1" />
        <rect
             width="188"
             height="69"
             x="287.75"
             y="516.93359"
             id="rect2991"
             style="color:#000000;fill:#e6e6e6;fill-opacity:1;fill-rule:nonzero;stroke:#000000;stroke-width:8;stroke-linecap:round;stroke-linejoin:bevel;stroke-miterlimit:4;stroke-opacity:1;stroke-dasharray:none;stroke-dashoffset:0;marker:none;visibility:visible;display:inline;overflow:visible;enable-background:accumulate" />
        <path
             d="M 291.75,520.1836 313.75,581.6836 333.5,520.4336"
             id="path3788"
             style="fill:none;stroke:#000000;stroke-width:7;stroke-linecap:round;stroke-linejoin:bevel;stroke-opacity:1" />
        <path
             d="M 337.75,520.1836 359.75,581.6836 379.5,520.4336"
             id="use3807"
             style="fill:none;stroke:#000000;stroke-width:7;stroke-linecap:round;stroke-linejoin:bevel;stroke-opacity:1" />
        <path
             d="M 383.75,520.1836 405.75,581.6836 425.5,520.4336"
             id="use3809"
             style="fill:none;stroke:#000000;stroke-width:7;stroke-linecap:round;stroke-linejoin:bevel;stroke-opacity:1" />
        <path
             d="M 429.75,520.1836 451.75,581.6836 471.5,520.4336"
             id="use3811"
             style="fill:none;stroke:#000000;stroke-width:7;stroke-linecap:round;stroke-linejoin:bevel;stroke-opacity:1" />
    </g>
</svg>
